<!-- Generator: Adobe Illustrator 22.1.0, SVG Export Plug-In . SVG Version: 6.00 Build 0) --><svg xmlns="http://www.w3.org/2000/svg" xmlns:xlink="http://www.w3.org/1999/xlink" version="1.1" id="Layer_1" x="0px" y="0px" viewBox="0 0 966.6 291.5" style="enable-background:new 0 0 966.6 291.5;" xml:space="preserve"><style type="text/css">.st0{fill:#FFFFFF;}	.st1{fill:#DA2128;}</style><title>Asset 1</title><g id="Layer_2_1_"><g id="Layer_1-2"><path class="st0" d="M364.9,176c6.8-0.2,13.5,1.4,19.5,4.5c5.5,2.9,10,7.3,13,12.7c6.2,12,6.2,26.3,0,38.3c-3,5.4-7.5,9.8-13,12.7 c-6,3.1-12.7,4.6-19.5,4.5c-6.7,0.1-13.3-1.4-19.3-4.5c-5.5-2.9-10-7.3-13-12.7c-6.2-12-6.2-26.3,0-38.3c3-5.4,7.5-9.8,13-12.7 C351.5,177.4,358.2,175.9,364.9,176 M364.9,245.2c5,0.1,9.9-1.3,14-4.1c4.1-2.9,7.3-6.8,9.2-11.5c4.3-11.2,4.3-23.5,0-34.7 c-1.9-4.6-5.1-8.6-9.2-11.5c-4.1-2.8-9-4.2-14-4.1c-4.9-0.1-9.7,1.3-13.8,4.1c-4.1,2.9-7.3,6.9-9.2,11.5 c-4.4,11.2-4.4,23.5,0,34.7c1.9,4.6,5.1,8.6,9.2,11.5C355.1,243.9,360,245.3,364.9,245.2"/><path class="st0" d="M418,184.6h-0.3c-0.1-1.7-0.8-3.3-2-4.4c-1.2-1.2-2.8-1.9-4.4-1.9H410v-1h8V184.6z M418,239.9v7.3h-8v-1h1.3 c1.7,0,3.3-0.6,4.4-1.9c1.2-1.2,1.9-2.7,2-4.4H418z M427,247.1h-9.3v-69.8h9.3V247.1z M426.7,184.6v-7.3h8v1h-1.3 c-1.7,0-3.3,0.6-4.4,1.9c-1.2,1.2-1.9,2.8-1.9,4.4L426.7,184.6z M426.7,239.9h0.3c0,1.7,0.7,3.3,1.9,4.4c1.2,1.2,2.8,1.9,4.4,1.9 h1.3v1h-8L426.7,239.9z M465.2,178l-29.9,34.8l-5.1,0.2l27.4-35H465.2z M437.6,207.2l27.6,34.1c1.3,1.4,2.8,2.6,4.4,3.5 c1.6,0.8,3.4,1.3,5.3,1.3v1h-5.6c-0.7,0-1.7-0.1-3.1-0.1c-1.5-0.1-3.1-0.4-4.6-0.8c-1.7-0.4-3.4-1.1-5-2c-1.7-0.9-3.2-2.2-4.4-3.7 c-0.1-0.1-0.8-0.9-1.8-2.3s-2.5-3.1-4.1-5.2s-3.4-4.3-5.2-6.6s-3.6-4.5-5.2-6.5s-3.5-4.3-5.6-6.9L437.6,207.2z M472,177.3v0.9 h-0.4c-2.1,0-4.2,0.4-6.1,1.3c-1.9,0.8-3.5,2.1-4.8,3.6l-6.9-0.2c0.8-0.9,1-2.1,0.5-3.2c-0.6-1-1.7-1.6-2.8-1.5h-1v-0.9H472 L472,177.3z"/><path class="st0" d="M485.2,177.4v6h-0.3c0-1.4-0.5-2.7-1.5-3.6c-1-0.9-2.4-1.4-3.7-1.4H478v-1L485.2,177.4z M494.2,177.4v43.9 c-0.1,4.3,0.8,8.6,2.5,12.6c1.5,3.4,4,6.3,7.2,8.3c3.2,2,7,3,10.8,2.9c3.9,0.1,7.8-0.9,11.3-2.8c3.2-1.8,5.8-4.6,7.5-7.9 c1.8-3.7,2.7-7.8,2.6-11.9v-45.2h5.5v45c0.1,4.8-1,9.5-3.3,13.8c-2.2,3.9-5.6,7.1-9.6,9.2c-4.5,2.3-9.5,3.4-14.6,3.3 c-5.4,0.1-10.8-1-15.7-3.2c-4.2-2-7.7-5.2-10.1-9.1c-2.4-4.2-3.6-8.9-3.5-13.8v-45.1H494.2z M501.1,177.4v1h-1.6 c-1.4,0-2.7,0.5-3.7,1.4c-1,0.9-1.6,2.2-1.5,3.6H494v-6L501.1,177.4z M536.5,177.4v6h-0.3c0-1.4-0.5-2.7-1.5-3.6 c-1-0.9-2.4-1.4-3.7-1.4h-1.6v-1L536.5,177.4z M548.5,177.4v1h-1.6c-1.4,0-2.7,0.5-3.7,1.4c-1,0.9-1.6,2.2-1.5,3.6h-0.2v-6 L548.5,177.4z"/><path class="st0" d="M565,184.6h-0.3c0-1.7-0.7-3.3-2-4.4c-1.2-1.2-2.8-1.9-4.4-1.9H557v-1h8V184.6z M565,239.9v7.3h-8v-1h1.3 c1.7,0,3.3-0.6,4.4-1.9c1.2-1.2,1.9-2.8,2-4.4H565z M574,247.1h-9.3v-69.8h9.3V247.1z M573.7,184.6v-7.3h8v1h-1.3 c-1.7,0-3.3,0.6-4.4,1.9c-1.2,1.2-1.9,2.8-1.9,4.4L573.7,184.6z M600.7,243.6l0.8,3.5h-27.8v-3.5H600.7z M607.2,229.6l-5.4,17.6 h-17.6l3.6-3.5c3,0.1,6-0.5,8.7-1.8c2.3-1.1,4.3-2.8,5.8-4.9c1.6-2.3,2.9-4.8,3.9-7.4H607.2z"/><path class="st0" d="M621.6,184.6h-0.3c0-1.7-0.7-3.3-1.9-4.4c-1.2-1.2-2.8-1.9-4.4-1.9h-1.3v-1h8L621.6,184.6z M621.6,239.9v7.3 h-8v-1h1.3c1.7,0,3.3-0.6,4.4-1.9c1.2-1.2,1.9-2.8,1.9-4.4H621.6z M630.6,247.1h-9.3v-69.8h9.3L630.6,247.1z M630.3,184.6v-7.3h8 v1H637c-1.7,0-3.3,0.6-4.4,1.9c-1.2,1.2-1.9,2.8-1.9,4.4L630.3,184.6z M657.3,243.6l0.8,3.5h-27.8v-3.5H657.3z M663.8,229.6 l-5.4,17.6h-17.5l3.6-3.5c3,0.1,6-0.5,8.7-1.8c2.3-1.1,4.3-2.8,5.8-4.9c1.6-2.3,2.9-4.8,3.9-7.4H663.8z"/><path class="st0" d="M680.2,239.9c-0.5,1.1-0.5,2.3-0.2,3.4c0.3,0.9,0.9,1.6,1.6,2.1c0.7,0.5,1.5,0.7,2.3,0.8h0.9v1h-20.4v-1h0.9 c1.7,0,3.3-0.5,4.7-1.4c1.8-1.2,3.2-2.9,4-4.8H680.2z M701.7,175.8l0.8,8.7l-24.9,62.4h-6.5l25.6-59.9c0.1-0.1,0.3-0.6,0.7-1.6 s0.9-2,1.4-3.2s1-2.5,1.3-3.7c0.3-0.9,0.5-1.8,0.6-2.7L701.7,175.8z M714.5,224.5H684v-3.4h30.5L714.5,224.5z M701.7,175.8 l30.5,70.8h-11.6l-22.2-58L701.7,175.8z M718,239.9h11.3c0.8,2,2.2,3.7,4,4.8c1.4,0.9,3.1,1.4,4.7,1.4h0.8v1h-25.5v-1h0.9 c1.3,0,2.6-0.6,3.5-1.6C718.7,243.4,718.8,241.9,718,239.9"/><path class="st0" d="M750.7,184.6h-0.3c0-1.7-0.7-3.3-1.9-4.4c-1.2-1.2-2.8-1.9-4.4-1.9h-1.3v-1h8L750.7,184.6z M750.7,239.9v7.3 h-8v-1h1.3c1.7,0,3.3-0.6,4.4-1.9c1.2-1.2,1.9-2.8,1.9-4.4H750.7z M759.7,247.1h-9.3v-69.8h9.3V247.1z M772.1,177.4 c2.8,0,5.7,0.4,8.4,1.2c2.4,0.7,4.7,1.9,6.6,3.5c1.9,1.6,3.3,3.6,4.3,5.8c1.1,2.6,1.7,5.4,1.6,8.2c0,3.1-0.7,6.1-2.1,8.9 c-1.3,2.8-3.3,5.3-5.8,7.1c-2.6,1.9-5.6,2.9-8.8,3c1.7,0.7,3.2,1.7,4.4,3.1c1.4,1.4,2.6,2.9,3.8,4.5c0.4,0.7,0.8,1.3,1.3,1.9 c0.8,1.2,1.9,2.7,3.1,4.4c1.3,1.8,2.5,3.5,3.8,5.2s2.4,3.2,3.4,4.3c1.2,1.4,2.5,2.8,3.9,4c1.3,1.1,2.7,1.9,4.2,2.6 c1.6,0.6,3.3,1,5,0.9v1h-7c-2.9,0-5.7-0.4-8.5-1.3c-2.3-0.8-4.5-1.9-6.4-3.4c-1.7-1.3-3.3-2.9-4.6-4.6c-0.3-0.5-0.8-1.3-1.7-2.6 s-1.8-2.7-2.8-4.3s-2-3.2-3-4.8l-2.6-4.1c-0.7-1.2-1.2-1.9-1.4-2.2c-1.1-1.7-2.3-3.3-3.8-4.6c-1.4-1.3-2.9-2.5-4.6-2.5l1.4,0.1 c0.9,0,2,0,3.1-0.1c1.7-0.1,3.6-0.9,5.5-1.4c2-0.6,3.9-1.6,5.4-3.1c1.8-1.9,3.1-4.2,3.6-6.8c0.2-0.8,0.4-1.6,0.5-2.5 c0.1-1,0.1-2.1,0-3.1c-0.1-4.6-1.2-8.2-3.4-10.7c-2.2-2.5-5.4-4-8.7-4c-1.6-0.1-3.2-0.2-4.8-0.1c-1.7,0-3.1,0-4.3,0h-2 c0-0.1-0.1-0.4-0.3-0.9s-0.4-1.4-0.8-2.5L772.1,177.4z M759.4,239.9h0.3c0,1.7,0.7,3.3,1.9,4.4c1.2,1.2,2.8,1.9,4.5,1.9h1.2v1 h-7.9V239.9z"/><path class="st0" d="M818,184.6h-0.3c0-1.7-0.7-3.3-1.9-4.4c-1.2-1.2-2.8-1.9-4.4-1.9H810v-1h8V184.6z M818,239.9v7.3h-8v-1h1.3 c1.7,0,3.3-0.6,4.4-1.9c1.2-1.2,1.9-2.8,1.9-4.4H818z M827,247.1h-9.3v-69.8h9.3V247.1z M826.7,184.6v-7.3h8v1h-1.3 c-1.7,0-3.3,0.6-4.4,1.9c-1.2,1.2-1.9,2.8-1.9,4.4L826.7,184.6z M826.7,239.9h0.3c0,1.7,0.7,3.3,1.9,4.4c1.2,1.2,2.8,1.9,4.4,1.9 h1.3v1h-8L826.7,239.9z"/><path class="st0" d="M339.1,62.1h-0.4c-0.1-2.3-1-4.6-2.7-6.2c-1.6-1.7-3.9-2.6-6.2-2.6H328V52h11.1L339.1,62.1z M339.1,139.1 v10.1H328v-1.4h1.8c2.3,0,4.6-0.9,6.2-2.6c1.7-1.6,2.6-3.9,2.7-6.2L339.1,139.1z M355.6,149.3h-17V52h17V149.3z M364,52 c6-0.1,11.9,0.8,17.6,2.6c4.6,1.4,8.7,4.1,11.8,7.8c2.8,3.5,4.2,7.9,4.2,13.3c0.1,3.7-0.7,7.3-2.4,10.6 c-2.8,5.4-8.1,9.2-14.1,10.1c4.5,0.5,8.9,1.9,12.7,4.3c3.6,2.2,6.5,5.3,8.6,9c2.1,3.9,3.2,8.3,3.1,12.8c0.1,5.2-1.5,10.4-4.6,14.6 c-3.3,4.2-7.8,7.4-12.9,9.2c-6.3,2.2-12.9,3.3-19.6,3.1h-14.1c0.1-1.9,0.1-3.9,0.1-5.8h9.9c3.9,0.1,7.8-0.8,11.4-2.5 c3.2-1.6,5.9-4.2,7.6-7.4c1.9-3.9,2.9-8.2,2.7-12.6c0.1-3.8-0.6-7.7-2.2-11.2c-1.3-2.8-3.4-5.3-5.9-7.2c-2.5-1.8-5.3-3-8.3-3.8 c-3.1-0.7-6.2-1.7-9.3-1.7c2.1,0,4.3-0.9,6.5-1.5c2.2-0.6,4.3-1.6,6.1-3c2-1.6,3.5-3.7,4.5-6c1.3-3,1.9-6.3,1.8-9.6 c0.1-3.8-0.6-7.6-2.2-11c-1.4-2.8-3.6-5.1-6.4-6.5c-3.1-1.5-6.6-2.2-10-2.1h-16.1c-0.1-0.5-0.2-0.9-0.4-1.4c-0.2-0.8-0.6-2.2-1-4 L364,52z"/><path class="st0" d="M439.9,62.1h-0.4c-0.1-2.3-1-4.6-2.7-6.2c-1.6-1.7-3.9-2.6-6.2-2.6h-1.8V52h11.1V62.1z M439.9,139.1v10.1 h-11.1v-1.4h1.8c2.3,0,4.6-0.9,6.2-2.6c1.7-1.6,2.7-3.9,2.7-6.2L439.9,139.1z M456.4,149.3h-17V52h17V149.3z M447.6,43.1 c-2,0-4-0.8-5.4-2.3c-3-3.1-3-7.9,0-11c1.4-1.5,3.4-2.3,5.4-2.3c4.3,0,7.8,3.5,7.8,7.8c0,2.1-0.8,4-2.2,5.5 C451.8,42.3,449.7,43.1,447.6,43.1 M456,62.1V52h11.1v1.4h-1.8c-2.3,0-4.6,0.9-6.2,2.6c-1.7,1.6-2.6,3.8-2.7,6.2L456,62.1z M456,139.1h0.4c0.1,2.3,1,4.6,2.7,6.2c1.6,1.7,3.9,2.6,6.2,2.6h1.8v1.4H456L456,139.1z"/><path class="st0" d="M503.5,62.1h-0.4c-0.1-2.3-1-4.5-2.7-6.2c-1.6-1.7-3.9-2.6-6.2-2.6h-1.8V52h11.1V62.1z M503.5,139.1v10.1 h-11.1v-1.4h1.8c2.3,0,4.6-0.9,6.2-2.6c1.7-1.6,2.6-3.9,2.7-6.2L503.5,139.1z M520,149.3h-16.9V52H520V149.3z M536.7,52 c4,0,8,0.5,11.9,1.5c3.6,0.9,6.9,2.5,9.9,4.7c2.9,2.1,5.2,4.9,6.8,8.1c1.7,3.7,2.5,7.7,2.4,11.7c0,4.2-0.9,8.3-2.6,12.1 c-1.7,3.9-4.4,7.3-7.8,9.9c-3.7,2.7-8.1,4.3-12.7,4.5c2.7,1,5.2,2.6,7.2,4.7c2.1,2.1,4,4.3,5.6,6.7c0.1,0.1,0.7,1,1.7,2.6 s2.4,3.6,4,5.9s3.2,4.6,4.9,7s3.2,4.3,4.5,5.8c1.7,2.1,3.5,4.1,5.6,5.9c1.6,1.5,3.5,2.6,5.6,3.5c2.1,0.8,4.4,1.2,6.7,1.2v1.4 h-11.6c-4.3,0-8.7-0.5-12.8-1.6c-3.5-0.9-6.8-2.5-9.8-4.6c-2.8-2.1-5.3-4.7-7.2-7.6c-0.5-0.8-1.3-2.1-2.4-3.8s-2.1-3.6-3.3-5.8 s-2.4-4.2-3.5-6.2s-2.1-3.8-2.9-5.3s-1.3-2.7-1.6-3.3c-1.3-2.4-2.9-4.6-4.9-6.5c-1.8-1.7-3.7-3.3-5.7-3.5c0.2,0,0.8,0,1.8,0.1 c1.2,0,2.3,0,3.5-0.1c2.5-0.1,5-1.3,7.5-2.1c2.6-0.9,5-2.5,6.9-4.6c2.1-2.2,3.6-5.4,4.5-9.6c0.2-0.8,0.4-1.9,0.6-3.2 c0.2-1.3,0.2-2.7,0.1-4c-0.3-6.5-1.9-11.4-5-14.7c-3-3.3-7.2-5.2-11.7-5.3c-1.8-0.1-3.6-0.1-5.6-0.1h-7.6 c-0.5-1.9-0.9-3.7-1.4-5.4L536.7,52z M519.6,139.1h0.4c0,2.3,0.9,4.6,2.6,6.2c1.7,1.7,3.9,2.6,6.3,2.6h1.7v1.4h-11L519.6,139.1z"/><path class="st0" d="M613.3,62.1h-0.4c-0.1-2.3-1-4.5-2.7-6.2c-1.6-1.7-3.8-2.6-6.2-2.6h-1.8V52h11.1L613.3,62.1z M613.3,139.1 v10.1h-11.1v-1.4h1.8c2.3,0,4.6-0.9,6.2-2.6c1.7-1.6,2.6-3.9,2.7-6.2L613.3,139.1z M629.8,149.3h-17V52h17V149.3z M621.1,43.1 c-2,0-4-0.8-5.4-2.3c-3-3.1-3-7.9,0-11c1.4-1.5,3.4-2.3,5.4-2.3c4.3,0,7.8,3.5,7.8,7.8c0,2.1-0.8,4-2.2,5.5 C625.2,42.3,623.2,43.1,621.1,43.1 M629.4,62.1V52h11.1v1.4h-1.8c-2.3,0-4.6,0.9-6.2,2.6c-1.7,1.6-2.6,3.8-2.7,6.2L629.4,62.1z M629.4,139.1h0.4c0.1,2.3,1,4.6,2.7,6.2c1.6,1.7,3.9,2.6,6.2,2.6h1.8v1.4h-11.1L629.4,139.1z"/><path class="st0" d="M676.7,62.1h-0.4c-0.1-2.3-1-4.6-2.7-6.2c-1.6-1.7-3.9-2.6-6.2-2.6h-1.8V52h11.1V62.1z M676.7,139.1v10.1 h-11.1v-1.4h1.8c2.3,0,4.6-0.9,6.2-2.6c1.7-1.6,2.7-3.9,2.7-6.2L676.7,139.1z M693.2,149.3h-17V52h17V149.3z M692.8,62.1V52h11.1 v1.4h-1.8c-2.3,0-4.6,0.9-6.2,2.6c-1.7,1.6-2.7,3.8-2.7,6.2L692.8,62.1z M692.8,139.1h0.4c0.1,2.3,1,4.6,2.7,6.2 c1.6,1.7,3.9,2.6,6.2,2.6h1.8v1.4h-11.1L692.8,139.1z M747.1,52.9L705.4,102l-7.8,0.6l38.2-49.6L747.1,52.9z M710.6,91.6 l37.4,48.7c1.7,2.2,3.9,4.1,6.3,5.6c2.3,1.3,4.9,2,7.6,2v1.4h-9.6c-1,0-2.6-0.1-4.7-0.2c-2.4-0.2-4.8-0.6-7.2-1.1 c-2.8-0.7-5.5-1.7-8-3c-2.8-1.5-5.2-3.5-7.1-6c-0.3-0.5-1.1-1.6-2.6-3.5c-1.4-1.9-3.2-4.2-5.3-6.9c-2.1-2.7-4.3-5.6-6.6-8.6 c-2.3-3-4.4-5.8-6.4-8.4c-2-2.6-4.2-5.6-6.7-8.9L710.6,91.6z M756.9,52v1.3h-0.6c-2.9,0-5.9,0.6-8.5,1.8c-2.6,1.1-4.9,2.8-6.8,4.9 l-10.4-0.3c1.4-1.6,1.3-4.1-0.3-5.5c-0.8-0.7-1.9-1.1-3-1h-1.4V52H756.9L756.9,52z"/><path class="st0" d="M789.2,62.1h-0.4c-0.1-2.3-1-4.6-2.7-6.2c-1.6-1.7-3.9-2.6-6.2-2.6h-1.8V52h11.1V62.1z M789.2,139.1v10.1 h-11.1v-1.4h1.8c2.3,0,4.6-0.9,6.2-2.6c1.7-1.6,2.6-3.9,2.7-6.2L789.2,139.1z M805.8,149.3h-17V52h17V149.3z M797,43.1 c-2,0-4-0.8-5.4-2.3c-3-3.1-3-7.9,0-11c1.4-1.5,3.4-2.3,5.4-2.3c4.3,0,7.8,3.5,7.8,7.8c0,2.1-0.8,4-2.2,5.5 C801.1,42.3,799.1,43.1,797,43.1 M805.3,62.1V52h11.1v1.4h-1.8c-2.3,0-4.6,0.9-6.2,2.6c-1.7,1.6-2.7,3.8-2.7,6.2L805.3,62.1z M805.3,139.1h0.4c0.1,2.3,1,4.6,2.7,6.2c1.6,1.7,3.9,2.6,6.2,2.6h1.8v1.4h-11.1L805.3,139.1z"/><path class="st0" d="M850.1,139.1v10.1h-15.4v-1.4h2.2c2.4,0,4.8-0.8,6.7-2.3c2-1.6,3.2-3.9,3.4-6.5H850.1z M858.2,50h1.4 l4.2,12.1l-9,87.2h-8.9L858.2,50z M855.5,141.3v0.7c0,1.5,0.6,3,1.6,4.1c0.9,1.2,2.3,1.9,3.8,1.9h2.1v1.3h-8.5v-7.9L855.5,141.3z M859.5,50l43.7,78.7l-6.4,23.1l-40.5-74.6L859.5,50z M941.4,50l1.1,13.2l-39.2,73.5c-1.4,2.7-2.7,5.5-3.8,8.3 c-0.8,2.1-1.3,4.4-1.4,6.7h-1.4l-4.3-11L941.4,50z M936.1,141.3h1v7.9h-8.5V148h2.1c1.5,0,3-0.7,3.9-1.9c1-1.1,1.5-2.6,1.5-4.1 L936.1,141.3L936.1,141.3z M942.7,50l12.8,99.2H937l-7.2-70.6L941.4,50H942.7z M951.1,139.1h3.1c0.3,2.5,1.6,4.8,3.5,6.5 c1.9,1.5,4.2,2.3,6.6,2.3h2.2v1.4h-15.4L951.1,139.1z"/><path class="st1" d="M101.9,251.5l0.9,1.2c11.1,13.7,24.1,25.8,38.6,35.8l4.3,3l4.2-3c14.5-10,27.5-22.1,38.6-35.8l1-1.1l1.5,0.1 c6.5,0.7,13,1,19.5,1c11.1,0,22.2-1,33.2-2.9l5.1-0.9l0.9-5.1c3.2-17.4,3.8-35.1,1.9-52.7l-0.1-1.5l1.1-0.9 c13.7-11.1,25.8-24.1,35.8-38.6l3-4.3l-3-4.2c-10.1-14.5-22.1-27.5-35.9-38.6l-1.1-1l0.1-1.5c1.9-17.5,1.2-35.3-1.9-52.6l-0.9-5.2 l-5.1-0.9c-17.4-3.1-35.1-3.8-52.7-1.9l-1.5,0.1l-1-1.2C177.5,25,164.5,13,150,3l-4.2-3l-4.3,3C127,13.1,114,25.1,102.9,38.9 l-0.9,1.1l-1.5-0.1c-17.6-1.8-35.3-1.2-52.7,1.9l-5.1,0.9l-0.9,5.2c-3.1,17.4-3.8,35.1-2,52.6L40,102l-1.2,1 C25.1,114.1,13.1,127.1,3,141.5l-3,4.2l3,4.2c10.1,14.5,22.2,27.5,35.9,38.6l1.2,0.9l-0.2,1.5c-1.8,17.6-1.2,35.3,2,52.6l0.9,5.1 l5.2,0.9c17.4,3.1,35.1,3.7,52.7,1.9L101.9,251.5z"/><path class="st0" d="M160.4,86.1c0,8.2-6.7,14.9-14.9,14.9c-8.2,0-14.9-6.7-14.9-14.9s6.7-14.9,14.9-14.9 C153.7,71.1,160.4,77.8,160.4,86.1C160.4,86,160.4,86.1,160.4,86.1"/><path class="st0" d="M143.3,127c-16-20.3-40.6-34.8-52.7-39.8c-0.3-0.1-0.5,0-0.7,0.2c-0.2,0.6,0.2,1,0.6,1.3 c9.4,6.8,30.6,24,44.1,49.4C137.8,133.6,140.6,130.2,143.3,127"/><path class="st0" d="M158.5,147.5c-4,4.4-7.8,9.1-11.2,14c3.1,6.1,5.5,12.5,7.2,19.2c2.7,9.6,0.9,19.8-4.3,23.3 c-4,2.7-9.3,2.3-12.9-0.8c-8.2-7.2-3.3-20.6-2-24.4c7.3-20.4,28.5-46.4,66.3-72l-13.8-4.4l0.2-14.2c-31,23.6-50.1,48.3-56.9,60.3 c-3.4,5.7-13.6,21.4-14.4,39.1c-0.2,4.2,0.2,8.5,1.2,12.6c1.4,5.5,4.6,10.4,9.1,14c4.7,3.7,10.4,5.8,16.3,6.1 c5.8,0.4,19.5-1.3,26.5-16.5c3.5-7.7,3.9-17.3,0.9-27.8C168,165.9,163.9,156.3,158.5,147.5"/></g></g></svg>